<?xml version="1.0" standalone="no"?>
<!DOCTYPE svg PUBLIC "-//W3C//DTD SVG 20010904//EN"
 "http://www.w3.org/TR/2001/REC-SVG-20010904/DTD/svg10.dtd">
<svg version="1.0" xmlns="http://www.w3.org/2000/svg"
 width="512.000000pt" height="512.000000pt" viewBox="0 0 512.000000 512.000000"
 preserveAspectRatio="xMidYMid meet">
<metadata>
Created by potrace 1.11, written by Peter Selinger 2001-2013
</metadata>
<g transform="translate(0.000000,512.000000) scale(0.100000,-0.100000)"
fill="#000000" stroke="none">
<path d="M2525 5113 c-351 -21 -638 -231 -760 -558 -14 -38 -25 -71 -25 -73 1
-1 -4 -27 -10 -58 -14 -65 -16 -195 -6 -273 29 -211 154 -418 331 -551 50 -38
162 -101 200 -113 135 -41 195 -51 305 -51 173 0 313 42 460 139 263 174 407
489 367 805 -16 125 -46 208 -127 349 -30 53 -125 156 -190 206 -97 75 -251
146 -348 161 -72 11 -161 19 -197 17z"/>
<path d="M1595 3388 c-71 -10 -132 -53 -168 -117 l-31 -55 0 -795 c0 -623 3
-804 13 -834 17 -50 64 -103 113 -128 46 -24 64 -26 178 -28 l85 -1 1 -587 c0
-639 0 -635 57 -699 63 -73 85 -78 339 -80 212 -2 230 -3 273 -24 63 -31 149
-31 404 -1 65 8 293 6 366 -3 67 -8 198 -19 240 -21 154 -5 245 96 245 273 0
91 -16 137 -63 177 -39 33 -42 34 -116 31 -42 -2 -87 -6 -100 -10 -43 -10 -70
17 -88 89 -7 28 -9 835 -3 846 4 5 51 11 106 13 54 2 111 8 125 14 44 18 101
74 123 122 19 44 20 65 21 815 0 424 -3 791 -7 817 -10 70 -56 131 -123 163
l-55 27 -943 2 c-519 0 -965 -2 -992 -6z"/>
</g>
</svg>
